<svg height="512" viewBox="0 0 64 64" width="512" xmlns="http://www.w3.org/2000/svg"><g id="Qr_Code-Smartphone-Technology-Commerce-Payment" data-name="Qr Code-Smartphone-Technology-Commerce-Payment"><path d="m56 11v38a2.006 2.006 0 0 1 -2 2h-44a2.006 2.006 0 0 1 -2-2v-38z" fill="#5aaae7"/><path d="m36 25v24a3.989 3.989 0 0 1 -.54 2h-18.92a3.989 3.989 0 0 1 -.54-2v-24a4 4 0 0 1 4-4h12a4 4 0 0 1 4 4z" fill="#3d9ae2"/><rect fill="#ffde55" height="32" rx="4" width="20" x="14" y="19"/><path d="m56 5v6h-48v-6a2.006 2.006 0 0 1 2-2h44a2.006 2.006 0 0 1 2 2z" fill="#ff5023"/><path d="m27.14 46.75a1.861 1.861 0 0 1 -.07.52l-.46 1.73-.54 2h-4.21a1.859 1.859 0 0 0 .19-.46l1.16-4.3a2 2 0 0 1 3.93.51z" fill="#ebbf00"/><path d="m25.14 44.75a1.861 1.861 0 0 1 -.07.52l-.46 1.73-1.08 4-.33 1.24a6.216 6.216 0 0 0 -.2 1.55v2.21l-3 4v1h-11v-3l-.7-2.81a9.842 9.842 0 0 1 -.3-2.42v-10.77a6 6 0 0 1 6-6v9l2.43 4.05a1.96 1.96 0 0 0 1.68.96h.02a1.981 1.981 0 0 0 1.92-1.47l1.16-4.3a2 2 0 0 1 3.93.51z" fill="#ffc477"/><path d="m30 18h-12a5 5 0 0 0 -5 5v12.08a7 7 0 0 0 -6 6.92v10.77a10.908 10.908 0 0 0 .33 2.67l.67 2.68v3.88h2v-4a.986.986 0 0 0 -.03-.24l-.7-2.81a8.916 8.916 0 0 1 -.27-2.18v-10.77a5.009 5.009 0 0 1 4-4.9v7.9a1 1 0 0 0 .14.51l2.43 4.05a2.956 2.956 0 0 0 2.53 1.45 3 3 0 0 0 2.92-2.21l1.15-4.3a1.006 1.006 0 0 1 1.23-.71.963.963 0 0 1 .6.46.974.974 0 0 1 .1.76l-1.86 6.97a6.922 6.922 0 0 0 -.24 1.81v1.88l-2.8 3.73a.984.984 0 0 0 -.2.6v2h2v-1.67l2.8-3.73a.984.984 0 0 0 .2-.6v-2.21a5.074 5.074 0 0 1 .17-1.29l.13-.5h5.7a5 5 0 0 0 5-5v-24a5 5 0 0 0 -5-5zm3 29a3.009 3.009 0 0 1 -3 3h-5.16l.53-2h1.63v-2h-1.09l.13-.47a3.032 3.032 0 0 0 -.3-2.28 3.007 3.007 0 0 0 -5.5.73l-1.15 4.3a.987.987 0 0 1 -1.8.25l-2.29-3.81v-21.72a3.009 3.009 0 0 1 3-3h12a3.009 3.009 0 0 1 3 3z"/><path d="m21 22h6v2h-6z"/><path d="m17 22h2v2h-2z"/><rect height="4" rx="1" width="4" x="17" y="27"/><rect height="4" rx="1" width="4" x="27" y="27"/><rect height="4" rx="1" width="4" x="17" y="37"/><path d="m29 39h-2v2h3a1 1 0 0 0 1-1v-3h-2z"/><path d="m23 27h2v4h-2z"/><path d="m27 33h4v2h-4z"/><path d="m21 33h4v2h-4z"/><path d="m23 37h2v4h-2z"/><path d="m17 33h2v2h-2z"/><path d="m54 2h-44a3.009 3.009 0 0 0 -3 3v30h2v-23h46v37a1 1 0 0 1 -1 1h-18v2h18a3.009 3.009 0 0 0 3-3v-44a3.009 3.009 0 0 0 -3-3zm1 8h-46v-5a1 1 0 0 1 1-1h44a1 1 0 0 1 1 1z"/><path d="m11 6h2v2h-2z"/><path d="m15 6h2v2h-2z"/><path d="m19 6h2v2h-2z"/><rect height="4" rx="1" width="4" x="37" y="17"/><rect height="4" rx="1" width="4" x="47" y="17"/><rect height="4" rx="1" width="4" x="37" y="27"/><path d="m47 31h3a1 1 0 0 0 1-1v-3h-2v2h-2z"/><path d="m43 17h2v4h-2z"/><path d="m47 23h4v2h-4z"/><path d="m41 23h4v2h-4z"/><path d="m43 27h2v4h-2z"/><path d="m37 23h2v2h-2z"/><path d="m41 38h10v2h-10z"/><path d="m41 42h10v2h-10z"/></g></svg>